<svg xmlns="http://www.w3.org/2000/svg" xmlns:svg="http://www.w3.org/2000/svg" id="svg2" width="636.004" height="636.004" version="1.1" viewBox="0 0 636.004 636.004"><metadata id="metadata386"/><title id="title4">t2tile</title><g id="f6e821c8-939e-4668-ba0c-2e2d549c3b4c" data-name="Layer 2" transform="translate(-67.998107,54.001893)"><g id="bed2fdb0-9389-4573-a424-5c465d3e61e9" data-name="Layer 1"><g id="g8"><rect style="opacity:1;fill:#000;fill-opacity:1;stroke:#000;stroke-width:1.67621076;stroke-linecap:round;stroke-miterlimit:4;stroke-dasharray:none;stroke-dashoffset:0;stroke-opacity:1" id="rect4533" width="634.328" height="634.328" x="68.836" y="-53.164"/><g id="g14"><g id="g16" style="fill:#3bdaff;fill-opacity:1"><g id="g18" style="fill:#3bdaff;fill-opacity:1"><circle style="fill:#3bdaff;fill-opacity:1" id="circle20" cx="111.5" cy="111.5" r="30"/><path style="fill:#3bdaff;fill-opacity:1" id="path22" d="M 111.5,82 A 29.5,29.5 0 1 1 82,111.5 29.53,29.53 0 0 1 111.5,82 m 0,-1 A 30.5,30.5 0 1 0 142,111.5 30.51,30.51 0 0 0 111.5,81 Z"/></g><g id="g24" style="fill:#3bdaff;fill-opacity:1"><circle style="fill:#3bdaff;fill-opacity:1" id="circle26" cx="172.5" cy="111.5" r="30"/><path style="fill:#3bdaff;fill-opacity:1" id="path28" d="M 172.5,82 A 29.5,29.5 0 1 1 143,111.5 29.53,29.53 0 0 1 172.5,82 m 0,-1 A 30.5,30.5 0 1 0 203,111.5 30.51,30.51 0 0 0 172.5,81 Z"/></g><g id="g30" style="fill:#3bdaff;fill-opacity:1"><circle style="fill:#3bdaff;fill-opacity:1" id="circle32" cx="233.5" cy="111.5" r="30"/><path style="fill:#3bdaff;fill-opacity:1" id="path34" d="M 233.5,82 A 29.5,29.5 0 1 1 204,111.5 29.53,29.53 0 0 1 233.5,82 m 0,-1 A 30.5,30.5 0 1 0 264,111.5 30.51,30.51 0 0 0 233.5,81 Z"/></g><g id="g36" style="fill:#3bdaff;fill-opacity:1"><circle style="fill:#3bdaff;fill-opacity:1" id="circle38" cx="294.5" cy="111.5" r="30"/><path style="fill:#3bdaff;fill-opacity:1" id="path40" d="M 294.5,82 A 29.5,29.5 0 1 1 265,111.5 29.53,29.53 0 0 1 294.5,82 m 0,-1 A 30.5,30.5 0 1 0 325,111.5 30.51,30.51 0 0 0 294.5,81 Z"/></g><g id="g42" style="fill:#3bdaff;fill-opacity:1"><circle style="fill:#3bdaff;fill-opacity:1" id="circle44" cx="355.5" cy="111.5" r="30"/><path style="fill:#3bdaff;fill-opacity:1" id="path46" d="M 355.5,82 A 29.5,29.5 0 1 1 326,111.5 29.53,29.53 0 0 1 355.5,82 m 0,-1 A 30.5,30.5 0 1 0 386,111.5 30.51,30.51 0 0 0 355.5,81 Z"/></g><g id="g48" style="fill:#3bdaff;fill-opacity:1"><circle style="fill:#3bdaff;fill-opacity:1" id="circle50" cx="416.5" cy="111.5" r="30"/><path style="fill:#3bdaff;fill-opacity:1" id="path52" d="M 416.5,82 A 29.5,29.5 0 1 1 387,111.5 29.53,29.53 0 0 1 416.5,82 m 0,-1 A 30.5,30.5 0 1 0 447,111.5 30.51,30.51 0 0 0 416.5,81 Z"/></g><g id="g54" style="fill:#3bdaff;fill-opacity:1"><circle style="fill:#3bdaff;fill-opacity:1" id="circle56" cx="477.5" cy="111.5" r="30"/><path style="fill:#3bdaff;fill-opacity:1" id="path58" d="M 477.5,82 A 29.5,29.5 0 1 1 448,111.5 29.53,29.53 0 0 1 477.5,82 m 0,-1 A 30.5,30.5 0 1 0 508,111.5 30.51,30.51 0 0 0 477.5,81 Z"/></g><g id="g60" style="fill:#3bdaff;fill-opacity:1"><circle style="fill:#3bdaff;fill-opacity:1" id="circle62" cx="538.5" cy="111.5" r="30"/><path style="fill:#3bdaff;fill-opacity:1" id="path64" d="M 538.5,82 A 29.5,29.5 0 1 1 509,111.5 29.53,29.53 0 0 1 538.5,82 m 0,-1 A 30.5,30.5 0 1 0 569,111.5 30.51,30.51 0 0 0 538.5,81 Z"/></g><g id="g66" style="fill:#3bdaff;fill-opacity:1"><circle style="fill:#3bdaff;fill-opacity:1" id="circle68" cx="599.5" cy="111.5" r="30"/><path style="fill:#3bdaff;fill-opacity:1" id="path70" d="M 599.5,82 A 29.5,29.5 0 1 1 570,111.5 29.53,29.53 0 0 1 599.5,82 m 0,-1 A 30.5,30.5 0 1 0 630,111.5 30.51,30.51 0 0 0 599.5,81 Z"/></g><g id="g72" style="fill:#3bdaff;fill-opacity:1"><circle style="fill:#3bdaff;fill-opacity:1" id="circle74" cx="111.5" cy="172.5" r="30"/><path style="fill:#3bdaff;fill-opacity:1" id="path76" d="M 111.5,143 A 29.5,29.5 0 1 1 82,172.5 29.53,29.53 0 0 1 111.5,143 m 0,-1 A 30.5,30.5 0 1 0 142,172.5 30.51,30.51 0 0 0 111.5,142 Z"/></g><g id="g78" style="fill:#3bdaff;fill-opacity:1"><circle style="fill:#3bdaff;fill-opacity:1" id="circle80" cx="172.5" cy="172.5" r="30"/><path style="fill:#3bdaff;fill-opacity:1" id="path82" d="M 172.5,143 A 29.5,29.5 0 1 1 143,172.5 29.53,29.53 0 0 1 172.5,143 m 0,-1 A 30.5,30.5 0 1 0 203,172.5 30.51,30.51 0 0 0 172.5,142 Z"/></g><g id="g84" style="fill:#3bdaff;fill-opacity:1"><circle style="fill:#3bdaff;fill-opacity:1" id="circle86" cx="233.5" cy="172.5" r="30"/><path style="fill:#3bdaff;fill-opacity:1" id="path88" d="M 233.5,143 A 29.5,29.5 0 1 1 204,172.5 29.53,29.53 0 0 1 233.5,143 m 0,-1 A 30.5,30.5 0 1 0 264,172.5 30.51,30.51 0 0 0 233.5,142 Z"/></g><g id="g90" style="fill:#3bdaff;fill-opacity:1"><circle style="fill:#3bdaff;fill-opacity:1" id="circle92" cx="294.5" cy="172.5" r="30"/><path style="fill:#3bdaff;fill-opacity:1" id="path94" d="M 294.5,143 A 29.5,29.5 0 1 1 265,172.5 29.53,29.53 0 0 1 294.5,143 m 0,-1 A 30.5,30.5 0 1 0 325,172.5 30.51,30.51 0 0 0 294.5,142 Z"/></g><g id="g96" style="fill:#3bdaff;fill-opacity:1"><circle style="fill:#3bdaff;fill-opacity:1" id="circle98" cx="355.5" cy="172.5" r="30"/><path style="fill:#3bdaff;fill-opacity:1" id="path100" d="M 355.5,143 A 29.5,29.5 0 1 1 326,172.5 29.53,29.53 0 0 1 355.5,143 m 0,-1 A 30.5,30.5 0 1 0 386,172.5 30.51,30.51 0 0 0 355.5,142 Z"/></g><g id="g102" style="fill:#3bdaff;fill-opacity:1"><circle style="fill:#3bdaff;fill-opacity:1" id="circle104" cx="416.5" cy="172.5" r="30"/><path style="fill:#3bdaff;fill-opacity:1" id="path106" d="M 416.5,143 A 29.5,29.5 0 1 1 387,172.5 29.53,29.53 0 0 1 416.5,143 m 0,-1 A 30.5,30.5 0 1 0 447,172.5 30.51,30.51 0 0 0 416.5,142 Z"/></g><g id="g108" style="fill:#3bdaff;fill-opacity:1"><circle style="fill:#3bdaff;fill-opacity:1" id="circle110" cx="477.5" cy="172.5" r="30"/><path style="fill:#3bdaff;fill-opacity:1" id="path112" d="M 477.5,143 A 29.5,29.5 0 1 1 448,172.5 29.53,29.53 0 0 1 477.5,143 m 0,-1 A 30.5,30.5 0 1 0 508,172.5 30.51,30.51 0 0 0 477.5,142 Z"/></g><g id="g114" style="fill:#3bdaff;fill-opacity:1"><circle style="fill:#3bdaff;fill-opacity:1" id="circle116" cx="538.5" cy="172.5" r="30"/><path style="fill:#3bdaff;fill-opacity:1" id="path118" d="M 538.5,143 A 29.5,29.5 0 1 1 509,172.5 29.53,29.53 0 0 1 538.5,143 m 0,-1 A 30.5,30.5 0 1 0 569,172.5 30.51,30.51 0 0 0 538.5,142 Z"/></g><g id="g120" style="fill:#3bdaff;fill-opacity:1"><circle style="fill:#3bdaff;fill-opacity:1" id="circle122" cx="599.5" cy="172.5" r="30"/><path style="fill:#3bdaff;fill-opacity:1" id="path124" d="M 599.5,143 A 29.5,29.5 0 1 1 570,172.5 29.53,29.53 0 0 1 599.5,143 m 0,-1 A 30.5,30.5 0 1 0 630,172.5 30.51,30.51 0 0 0 599.5,142 Z"/></g><g id="g126" style="fill:#3bdaff;fill-opacity:1"><circle style="fill:#3bdaff;fill-opacity:1" id="circle128" cx="660.5" cy="172.5" r="30"/><path style="fill:#3bdaff;fill-opacity:1" id="path130" d="M 660.5,143 A 29.5,29.5 0 1 1 631,172.5 29.53,29.53 0 0 1 660.5,143 m 0,-1 A 30.5,30.5 0 1 0 691,172.5 30.51,30.51 0 0 0 660.5,142 Z"/></g><g id="g132" style="fill:#3bdaff;fill-opacity:1"><circle style="fill:#3bdaff;fill-opacity:1" id="circle134" cx="233.5" cy="233.5" r="30"/><path style="fill:#3bdaff;fill-opacity:1" id="path136" d="M 233.5,204 A 29.5,29.5 0 1 1 204,233.5 29.53,29.53 0 0 1 233.5,204 m 0,-1 A 30.5,30.5 0 1 0 264,233.5 30.51,30.51 0 0 0 233.5,203 Z"/></g><g id="g138" style="fill:#3bdaff;fill-opacity:1"><circle style="fill:#3bdaff;fill-opacity:1" id="circle140" cx="294.5" cy="233.5" r="30"/><path style="fill:#3bdaff;fill-opacity:1" id="path142" d="M 294.5,204 A 29.5,29.5 0 1 1 265,233.5 29.53,29.53 0 0 1 294.5,204 m 0,-1 A 30.5,30.5 0 1 0 325,233.5 30.51,30.51 0 0 0 294.5,203 Z"/></g><g id="g144" style="fill:#3bdaff;fill-opacity:1"><circle style="fill:#3bdaff;fill-opacity:1" id="circle146" cx="599.5" cy="233.5" r="30"/><path style="fill:#3bdaff;fill-opacity:1" id="path148" d="M 599.5,204 A 29.5,29.5 0 1 1 570,233.5 29.53,29.53 0 0 1 599.5,204 m 0,-1 A 30.5,30.5 0 1 0 630,233.5 30.51,30.51 0 0 0 599.5,203 Z"/></g><g id="g150" style="fill:#3bdaff;fill-opacity:1"><circle style="fill:#3bdaff;fill-opacity:1" id="circle152" cx="660.5" cy="233.5" r="30"/><path style="fill:#3bdaff;fill-opacity:1" id="path154" d="M 660.5,204 A 29.5,29.5 0 1 1 631,233.5 29.53,29.53 0 0 1 660.5,204 m 0,-1 A 30.5,30.5 0 1 0 691,233.5 30.51,30.51 0 0 0 660.5,203 Z"/></g><g id="g156" style="fill:#3bdaff;fill-opacity:1"><circle style="fill:#3bdaff;fill-opacity:1" id="circle158" cx="233.5" cy="294.5" r="30"/><path style="fill:#3bdaff;fill-opacity:1" id="path160" d="M 233.5,265 A 29.5,29.5 0 1 1 204,294.5 29.53,29.53 0 0 1 233.5,265 m 0,-1 A 30.5,30.5 0 1 0 264,294.5 30.51,30.51 0 0 0 233.5,264 Z"/></g><g id="g162" style="fill:#3bdaff;fill-opacity:1"><circle style="fill:#3bdaff;fill-opacity:1" id="circle164" cx="294.5" cy="294.5" r="30"/><path style="fill:#3bdaff;fill-opacity:1" id="path166" d="M 294.5,265 A 29.5,29.5 0 1 1 265,294.5 29.53,29.53 0 0 1 294.5,265 m 0,-1 A 30.5,30.5 0 1 0 325,294.5 30.51,30.51 0 0 0 294.5,264 Z"/></g><g id="g168" style="fill:#3bdaff;fill-opacity:1"><circle style="fill:#3bdaff;fill-opacity:1" id="circle170" cx="538.5" cy="294.5" r="30"/><path style="fill:#3bdaff;fill-opacity:1" id="path172" d="M 538.5,265 A 29.5,29.5 0 1 1 509,294.5 29.53,29.53 0 0 1 538.5,265 m 0,-1 A 30.5,30.5 0 1 0 569,294.5 30.51,30.51 0 0 0 538.5,264 Z"/></g><g id="g174" style="fill:#3bdaff;fill-opacity:1"><circle style="fill:#3bdaff;fill-opacity:1" id="circle176" cx="599.5" cy="294.5" r="30"/><path style="fill:#3bdaff;fill-opacity:1" id="path178" d="M 599.5,265 A 29.5,29.5 0 1 1 570,294.5 29.53,29.53 0 0 1 599.5,265 m 0,-1 A 30.5,30.5 0 1 0 630,294.5 30.51,30.51 0 0 0 599.5,264 Z"/></g><g id="g180" style="fill:#3bdaff;fill-opacity:1"><circle style="fill:#3bdaff;fill-opacity:1" id="circle182" cx="233.5" cy="355.5" r="30"/><path style="fill:#3bdaff;fill-opacity:1" id="path184" d="M 233.5,326 A 29.5,29.5 0 1 1 204,355.5 29.53,29.53 0 0 1 233.5,326 m 0,-1 A 30.5,30.5 0 1 0 264,355.5 30.51,30.51 0 0 0 233.5,325 Z"/></g><g id="g186" style="fill:#3bdaff;fill-opacity:1"><circle style="fill:#3bdaff;fill-opacity:1" id="circle188" cx="294.5" cy="355.5" r="30"/><path style="fill:#3bdaff;fill-opacity:1" id="path190" d="M 294.5,326 A 29.5,29.5 0 1 1 265,355.5 29.53,29.53 0 0 1 294.5,326 m 0,-1 A 30.5,30.5 0 1 0 325,355.5 30.51,30.51 0 0 0 294.5,325 Z"/></g><g id="g192" style="fill:#3bdaff;fill-opacity:1"><circle style="fill:#3bdaff;fill-opacity:1" id="circle194" cx="477.5" cy="355.5" r="30"/><path style="fill:#3bdaff;fill-opacity:1" id="path196" d="M 477.5,326 A 29.5,29.5 0 1 1 448,355.5 29.53,29.53 0 0 1 477.5,326 m 0,-1 A 30.5,30.5 0 1 0 508,355.5 30.51,30.51 0 0 0 477.5,325 Z"/></g><g id="g198" style="fill:#3bdaff;fill-opacity:1"><circle style="fill:#3bdaff;fill-opacity:1" id="circle200" cx="538.5" cy="355.5" r="30"/><path style="fill:#3bdaff;fill-opacity:1" id="path202" d="M 538.5,326 A 29.5,29.5 0 1 1 509,355.5 29.53,29.53 0 0 1 538.5,326 m 0,-1 A 30.5,30.5 0 1 0 569,355.5 30.51,30.51 0 0 0 538.5,325 Z"/></g><g id="g204" style="fill:#3bdaff;fill-opacity:1"><circle style="fill:#3bdaff;fill-opacity:1" id="circle206" cx="599.5" cy="355.5" r="30"/><path style="fill:#3bdaff;fill-opacity:1" id="path208" d="M 599.5,326 A 29.5,29.5 0 1 1 570,355.5 29.53,29.53 0 0 1 599.5,326 m 0,-1 A 30.5,30.5 0 1 0 630,355.5 30.51,30.51 0 0 0 599.5,325 Z"/></g><g id="g210" style="fill:#3bdaff;fill-opacity:1"><circle style="fill:#3bdaff;fill-opacity:1" id="circle212" cx="660.5" cy="355.5" r="30"/><path style="fill:#3bdaff;fill-opacity:1" id="path214" d="M 660.5,326 A 29.5,29.5 0 1 1 631,355.5 29.53,29.53 0 0 1 660.5,326 m 0,-1 A 30.5,30.5 0 1 0 691,355.5 30.51,30.51 0 0 0 660.5,325 Z"/></g><g id="g216" style="fill:#3bdaff;fill-opacity:1"><circle style="fill:#3bdaff;fill-opacity:1" id="circle218" cx="233.5" cy="416.5" r="30"/><path style="fill:#3bdaff;fill-opacity:1" id="path220" d="M 233.5,387 A 29.5,29.5 0 1 1 204,416.5 29.53,29.53 0 0 1 233.5,387 m 0,-1 A 30.5,30.5 0 1 0 264,416.5 30.51,30.51 0 0 0 233.5,386 Z"/></g><g id="g222" style="fill:#3bdaff;fill-opacity:1"><circle style="fill:#3bdaff;fill-opacity:1" id="circle224" cx="294.5" cy="416.5" r="30"/><path style="fill:#3bdaff;fill-opacity:1" id="path226" d="M 294.5,387 A 29.5,29.5 0 1 1 265,416.5 29.53,29.53 0 0 1 294.5,387 m 0,-1 A 30.5,30.5 0 1 0 325,416.5 30.51,30.51 0 0 0 294.5,386 Z"/></g><g id="g228" style="fill:#3bdaff;fill-opacity:1"><circle style="fill:#3bdaff;fill-opacity:1" id="circle230" cx="416.5" cy="416.5" r="30"/><path style="fill:#3bdaff;fill-opacity:1" id="path232" d="M 416.5,387 A 29.5,29.5 0 1 1 387,416.5 29.53,29.53 0 0 1 416.5,387 m 0,-1 A 30.5,30.5 0 1 0 447,416.5 30.51,30.51 0 0 0 416.5,386 Z"/></g><g id="g234" style="fill:#3bdaff;fill-opacity:1"><circle style="fill:#3bdaff;fill-opacity:1" id="circle236" cx="477.5" cy="416.5" r="30"/><path style="fill:#3bdaff;fill-opacity:1" id="path238" d="M 477.5,387 A 29.5,29.5 0 1 1 448,416.5 29.53,29.53 0 0 1 477.5,387 m 0,-1 A 30.5,30.5 0 1 0 508,416.5 30.51,30.51 0 0 0 477.5,386 Z"/></g><g id="g240" style="fill:#3bdaff;fill-opacity:1"><circle style="fill:#3bdaff;fill-opacity:1" id="circle242" cx="538.5" cy="416.5" r="30"/><path style="fill:#3bdaff;fill-opacity:1" id="path244" d="M 538.5,387 A 29.5,29.5 0 1 1 509,416.5 29.53,29.53 0 0 1 538.5,387 m 0,-1 A 30.5,30.5 0 1 0 569,416.5 30.51,30.51 0 0 0 538.5,386 Z"/></g><g id="g246" style="fill:#3bdaff;fill-opacity:1"><circle style="fill:#3bdaff;fill-opacity:1" id="circle248" cx="599.5" cy="416.5" r="30"/><path style="fill:#3bdaff;fill-opacity:1" id="path250" d="M 599.5,387 A 29.5,29.5 0 1 1 570,416.5 29.53,29.53 0 0 1 599.5,387 m 0,-1 A 30.5,30.5 0 1 0 630,416.5 30.51,30.51 0 0 0 599.5,386 Z"/></g><g id="g252" style="fill:#3bdaff;fill-opacity:1"><circle style="fill:#3bdaff;fill-opacity:1" id="circle254" cx="660.5" cy="416.5" r="30"/><path style="fill:#3bdaff;fill-opacity:1" id="path256" d="M 660.5,387 A 29.5,29.5 0 1 1 631,416.5 29.53,29.53 0 0 1 660.5,387 m 0,-1 A 30.5,30.5 0 1 0 691,416.5 30.51,30.51 0 0 0 660.5,386 Z"/></g></g></g></g></g></g></svg>